<?xml version="1.0" standalone="no"?>
<!DOCTYPE svg PUBLIC "-//W3C//DTD SVG 20010904//EN"
 "http://www.w3.org/TR/2001/REC-SVG-20010904/DTD/svg10.dtd">
<svg version="1.0" xmlns="http://www.w3.org/2000/svg"
 width="972.000000pt" height="720.000000pt" viewBox="0 0 972.000000 720.000000"
 preserveAspectRatio="xMidYMid meet">

<g transform="translate(0.000000,720.000000) scale(0.100000,-0.100000)"
fill="currentColor" stroke="none">
<path d="M4892 7000 c-114 -10 -178 -26 -302 -77 -262 -108 -528 -344 -668
-593 -129 -231 -183 -602 -127 -870 60 -285 259 -608 474 -771 l64 -49 757 0
757 0 84 74 c175 154 340 396 404 592 49 149 68 422 44 614 -20 164 -107 375
-220 533 -79 111 -222 258 -319 326 -143 101 -342 187 -485 210 -89 14 -345
20 -463 11z"/>
<path d="M2285 5951 c-250 -41 -520 -297 -580 -553 -19 -80 -19 -297 0 -401
17 -98 66 -202 136 -289 l54 -68 562 0 562 0 44 63 c93 130 138 250 157 412
36 321 -119 604 -420 769 -36 19 -92 42 -125 51 -69 18 -315 28 -390 16z"/>
<path d="M1399 4043 c-6 -16 -26 -68 -44 -118 -32 -87 -75 -198 -110 -280
l-17 -40 -19 36 c-10 20 -34 87 -55 150 l-36 113 -43 -119 c-23 -66 -49 -133
-57 -150 l-16 -29 -17 39 c-10 22 -48 123 -86 225 l-68 185 -85 3 c-47 1 -86
-1 -86 -5 0 -7 186 -533 251 -710 l23 -63 54 0 c66 0 87 11 111 58 l19 37 7
-28 c14 -55 99 -87 154 -57 22 11 6 -29 162 404 100 277 127 361 117 367 -7 5
-43 9 -81 9 -64 0 -68 -1 -78 -27z"/>
<path d="M1875 4061 c-26 -5 -31 -11 -37 -51 -3 -25 -7 -199 -7 -387 l-1 -343
85 0 85 0 0 105 0 105 135 0 135 0 0 -105 0 -105 90 0 90 0 0 395 0 395 -90 0
-90 0 0 -205 0 -205 -135 0 -135 0 0 205 0 205 -47 -1 c-27 -1 -61 -4 -78 -8z"/>
<path d="M2725 3859 c14 -428 25 -471 132 -526 109 -56 291 -55 403 2 51 26
79 58 99 115 13 37 29 305 30 503 l1 117 -80 0 -80 0 0 -227 c0 -247 -6 -294
-42 -329 -39 -39 -208 -55 -257 -25 -24 15 -32 87 -38 329 l-6 242 -46 0 c-25
0 -63 3 -85 7 l-38 6 7 -214z"/>
<path d="M3660 3969 l0 -100 98 1 c53 1 112 1 130 1 l32 -1 0 -295 0 -295 85
0 85 0 0 295 0 295 73 1 c39 1 97 2 127 3 l55 1 -4 90 c-2 50 -4 91 -5 91 0 1
-153 4 -338 8 l-338 6 0 -101z"/>
<path d="M5330 3675 l0 -395 85 0 85 0 1 108 c1 59 4 136 8 172 l6 65 38 -85
c52 -115 67 -130 132 -130 64 0 71 7 121 124 l39 90 6 -60 c4 -32 10 -107 14
-165 l7 -107 36 -6 c21 -3 56 -6 80 -6 l42 0 0 395 0 395 -58 0 c-79 0 -91
-14 -199 -237 l-89 -182 -86 174 c-48 95 -101 189 -119 209 -29 34 -35 36 -90
36 l-59 0 0 -395z"/>
<path d="M6543 4060 c-98 -21 -172 -83 -194 -162 -16 -61 -17 -381 -1 -435 18
-60 54 -98 126 -133 89 -44 221 -53 324 -21 100 30 143 72 172 168 19 64 21
90 18 225 -3 130 -6 160 -25 199 -31 70 -87 125 -141 143 -57 19 -222 28 -279
16z m236 -188 c14 -10 29 -30 32 -43 11 -39 10 -251 -1 -291 -15 -53 -39 -63
-155 -63 -121 0 -148 13 -166 77 -16 60 -7 235 13 274 16 30 66 58 118 68 49
9 134 -3 159 -22z"/>
<path d="M7214 4054 c24 -61 218 -602 240 -669 37 -113 33 -109 112 -102 37 4
71 10 75 14 10 10 85 215 190 517 52 151 76 233 70 239 -6 6 -43 12 -84 15
l-75 4 -37 -113 c-21 -63 -56 -159 -77 -214 -22 -55 -45 -111 -50 -125 l-10
-25 -19 37 c-19 38 -112 279 -143 376 l-18 52 -51 0 c-29 0 -70 3 -91 7 -36 6
-39 4 -32 -13z"/>
<path d="M8210 3675 l0 -395 75 0 75 0 0 395 0 395 -75 0 -75 0 0 -395z"/>
<path d="M8680 3675 l0 -395 321 0 322 0 -7 46 c-3 26 -6 66 -6 90 l0 44 -92
0 c-114 1 -327 16 -350 25 -10 4 -18 11 -18 16 0 21 50 28 211 30 l174 1 -7
82 c-3 44 -7 87 -7 94 -1 9 -32 12 -118 12 -65 0 -148 3 -185 7 l-68 6 0 68 0
69 168 0 c92 0 197 3 235 7 l67 6 0 93 0 94 -320 0 -320 0 0 -395z"/>
<path d="M1680 2177 c0 -327 3 -858 7 -1180 l6 -587 2342 0 2342 0 6 188 c4
103 7 634 7 1180 l0 992 -2355 0 -2355 0 0 -593z"/>
<path d="M7119 2666 c-185 -154 -170 -127 -175 -308 -3 -84 -1 -299 3 -478 l8
-324 285 -223 c336 -264 880 -683 930 -717 74 -51 116 -40 131 35 6 25 12 495
16 1082 l6 1037 -540 0 -540 0 -124 -104z"/>
</g>
</svg>
